<?xml version="1.0" encoding="UTF-8"?>
<!DOCTYPE svg PUBLIC "-//W3C//DTD SVG 1.1//EN" "http://www.w3.org/Graphics/SVG/1.1/DTD/svg11.dtd">
<!-- Creator: CorelDRAW 2021.5 -->
<svg xmlns="http://www.w3.org/2000/svg" xml:space="preserve" width="503.066mm" height="171.216mm" version="1.1" style="shape-rendering:geometricPrecision; text-rendering:geometricPrecision; image-rendering:optimizeQuality; fill-rule:evenodd; clip-rule:evenodd"
viewBox="0 0 16381.76 5575.46"
 xmlns:xlink="http://www.w3.org/1999/xlink"
 xmlns:xodm="http://www.corel.com/coreldraw/odm/2003">
 <defs>
  <style type="text/css">
   <![CDATA[
    .fil1 {fill:#FEFEFE}
    .fil12 {fill:#4F4F4F}
    .fil9 {fill:#747474}
    .fil10 {fill:gray}
    .fil11 {fill:#878787}
    .fil8 {fill:#B4B4B4}
    .fil0 {fill:#D93900}
    .fil6 {fill:#F2F2F2}
    .fil7 {fill:#F9F9F9}
    .fil4 {fill:#FAFAFA}
    .fil5 {fill:#FCFCFC}
    .fil3 {fill:#FDFDFD}
    .fil2 {fill:#FEFEFE}
   ]]>
  </style>
 </defs>
 <g id="Layer_x0020_1">
  <metadata id="CorelCorpID_0Corel-Layer"/>
  <g id="_2767082113696">
   <path class="fil0" d="M6409.34 223.41c4.74,-1.87 9.55,-3.61 14.43,-5.23 15.05,-5.07 30.14,-8.76 45.19,-11.1l5.81 -1.19c29.74,-6.11 59.35,-7.08 87.82,-3.4 6.18,-3.37 11.74,-6.7 16.52,-9.94 36.43,-36.88 64.1,-61.6 112.06,-87.25 15.35,-8.21 31.13,-14.78 47.14,-19.76 12.8,-13.67 27.29,-26.23 43.38,-37.46 80.39,-56.17 177.92,-63.5 265.82,-19.99 86.54,42.85 180.18,124.36 261.39,206.99 62.09,13.48 118.09,49.96 157.3,105.73l57.63 81.96c4.94,7.02 8.87,13.19 13.12,20.65 91.81,160.6 146.04,311.01 135.2,498.14 40.92,38.33 79.76,78.32 120.39,119.45 102.18,103.42 131.4,220.97 176.6,351.9 29.01,84.08 69.13,163.42 97.62,247.95 -0.46,-30.76 -0.92,-61.52 -1.37,-92.28 -3.45,-232.24 -9.52,-466.58 -8.32,-698.75 0.69,-131.58 96.98,-240.79 227.43,-257.95l749.11 -98.55c77.9,-10.26 148.98,11.55 207.74,63.7 58.77,52.16 88.84,120.16 87.9,198.72 -0.37,30.96 -0.78,61.92 -1.22,92.88 27.45,-24.09 59.47,-43.91 96.19,-58.76 60.17,-24.35 120.76,-29.6 184.19,-37.48 237.98,-29.56 509.38,-98.11 746.12,-92.5 62.65,1.48 119.82,24.48 164.12,62.35 58.58,-77.75 154.14,-114.8 264.11,-119.94 14.53,-0.68 26.97,-0.27 41.43,1.35l1063.59 119.71c63.69,7.16 121.59,21.9 169.74,49.6 22.01,-17.07 47.18,-30.9 74.96,-40.72 191.7,-67.8 714.54,2.37 1053.28,59.67 -20.34,-354.35 222.66,-638.41 587.26,-684.67 307.47,-39.01 602.76,149.31 704.91,429.14l559.59 -85.49c83.74,-12.8 161.28,12.06 221.97,71.17 60.69,59.11 87.59,135.95 77.03,220.01l-0.35 2.8c45.48,-19.22 96.64,-25.07 148.93,-15.59 119.28,21.63 273.62,78.06 389.93,116.88 100.86,33.65 310.47,97.48 394.42,156.04 90.91,63.4 131.08,170.94 104.01,278.41 -27.86,110.61 -176.48,260.82 -254.35,345.74 -76.57,83.52 -158.66,174.82 -241.01,252.37 -66.34,62.47 -128.97,127.12 -188.57,195.89 30.84,15.52 61.76,30.9 92.68,46.22 133.01,65.86 267.58,129.17 400.16,195.69 104,52.19 159.67,161.44 140.77,276.25l-147.75 897.57c-6.24,37.93 -19.44,72.2 -39.02,102.05 43.16,23.66 79.26,59.99 104.25,106.7 48.86,91.3 41.19,195.94 -20.47,279.13l-211.16 284.93c-49.06,66.2 -118.73,102.81 -201.07,105.67l-3345.32 115.97c-102.11,3.54 -191.47,-47.91 -239.67,-137.99 -20.14,-37.64 -30.68,-77.5 -31.8,-117.22l-2940.11 181.34c-22.95,1.42 -45.3,0.06 -66.74,-3.93 -0.24,4.42 -0.49,8.83 -0.73,13.24 -5.73,103.24 -8.09,361.09 -55.71,450.01 -14.93,27.89 -31.85,49.49 -55.33,70.69 -69.38,62.61 -144.26,100.05 -217.47,153.47 -1.35,0.97 -2.5,1.8 -3.87,2.76l-584.35 410.38c-60.49,42.48 -128.15,56.84 -200.68,42.61 -72.54,-14.25 -129.74,-53.11 -169.69,-115.31l-555.87 -865.43c-37.89,21.37 -81.5,32.86 -128.34,33.01l-4212.75 13.66c-100.73,0.33 -187.25,-52.24 -233.37,-141.79 -23.78,-46.16 -33.33,-95.35 -28.94,-143.39l-2344.48 -2.82c-93.87,-0.11 -174.43,-45.49 -223.19,-125.71 -48.75,-80.21 -51.93,-172.64 -8.81,-256.01l149.6 -289.2c46.93,-90.73 135.51,-143.41 237.64,-141.33l246.21 5.02c-18.97,-36.73 -28.32,-77.61 -27.82,-122.04l15.88 -1419.11c-88.17,22.64 -176.25,47.35 -264.63,68.44 -41.51,9.9 -80.86,23.9 -121.79,34.32 -127.01,32.36 -251,-5.87 -326.67,-116.01 -4.56,-6.64 -8.2,-12.47 -12.16,-19.49 -66.09,-116.99 -56.38,-447.94 -56.52,-585.49 -0.13,-135.23 -6.33,-434.02 30.94,-558.23 32.56,-108.5 125.84,-181.14 239.01,-186.12 150.56,-6.62 302.58,-18.82 452.98,-29.2 247.57,-17.09 495.1,-34.55 742.68,-51.44 236.36,-16.12 472.85,-32.11 709.38,-45.49 101.34,-5.72 327.83,-26.79 423.5,-5.21 116.63,26.31 198.31,123.88 203.72,243.31l0.16 3.58 420.75 -18.23c29.1,-1.25 57.28,2.06 83.82,9.49 14.94,-9.77 31.12,-18.19 48.41,-25.07 100.89,-40.18 280.27,-62.73 389.69,-77.71 115.3,-15.77 326,-47.1 435.13,-11.83 21.96,7.1 42.39,16.71 61.03,28.45 39.05,-26.13 85.59,-42.06 135.86,-43.85l616.9 -22c73.56,-2.62 137.82,21.99 190.82,73.07 52.99,51.07 79.96,114.39 80.05,187.99l0.06 40.29c5.78,-4.06 11.65,-7.87 17.61,-11.42 4.52,-11.79 9.49,-23.78 14.99,-36.07 56.75,-126.93 123.35,-263.67 275.83,-296.35 20.75,-4.45 41.21,-6.53 61.23,-6.26 123.88,-108.55 271.87,-202.47 382.2,-226.97 45.75,-10.16 90.98,-8.43 132.71,4.07 1.48,-0.61 2.98,-1.21 4.47,-1.81 84.22,-33.87 170.05,-63.14 254.98,-95.07z"/>
   <g>
    <path class="fil1" d="M4386.84 875.32l7.93 1259.28 -303.92 -54.04 9.36 -1202.36c-66.22,-21.4 -569.21,52.42 -647.64,83.65l24.86 2444.88 603.26 78.24 8.97 -882.83c93.12,0.32 228.07,-0.68 294.23,34.06l25.48 1248.28 597.96 -156.52 -3.61 -2874.64 -616.89 22z"/>
    <path class="fil1" d="M14459.51 823.75c-50.57,160.76 -81.2,2178.13 -78.43,2484.26l453.25 -124.91 17.82 -549.07c152.17,91.85 978.19,794.92 1065.16,833.81l147.75 -897.57c-143.19,-71.86 -725.95,-346.48 -792.33,-409.02 39.39,-66.5 152.68,-160.43 208.67,-225.81 69.56,-81.21 137.78,-152.2 217.36,-227.14 56.95,-53.62 409.51,-425.77 421.05,-471.61 -50.62,-35.31 -595.85,-214.58 -681.4,-230.09 -27.47,42.36 -417.77,608.31 -478.86,656.81l117.43 -934 -617.49 94.33z"/>
    <path class="fil1" d="M281.91 898.42c-26.42,88.06 -27.58,886.15 2.78,939.9 21.33,31.05 45.41,5.65 172.22,-24.6 118.88,-28.35 518.32,-142.67 590.43,-131.74l-19.48 1739.77 660.13 -38.94c57.84,-328.23 -41.64,-1559.52 9.25,-1842.89 199.19,-32.95 736.63,-69.16 873.51,-129.74l-29.38 -649.25c-89.6,-20.22 -1977.29,125.08 -2259.47,137.5z"/>
    <path class="fil1" d="M12736.59 1484.2c60.34,50.66 371.2,283.43 413.78,342.88 -133.02,45.47 -266.2,127.98 -429.1,163.62l15.32 -506.51zm-516.91 -485.41l62.79 2344.41 381.5 44.86c46.81,5.02 84.69,9.86 124.15,-6.4l-62.97 -975.36c18.08,13.74 14.19,8.25 28.74,28.31 64.66,89.19 484.63,1010.47 574.92,1150.7l742.06 27.7c-92.08,-199.39 -827.68,-1216.98 -917.87,-1425.49 45.27,-28.16 126.87,-54.14 183.42,-80.92 63.97,-30.28 124.67,-52.48 182.51,-80.23l-175.54 -920.32c-203.08,-39.09 -964.04,-163.72 -1123.7,-107.27z"/>
    <path class="fil1" d="M11310.82 3178.49c-5.06,-145.99 -74.12,-645.45 -39.95,-741.58l431.91 48.67c-22.27,71.56 -347.61,642 -391.96,692.91zm-90.12 -1970.11c83.93,0.91 310.34,37.35 372.02,71.51 -29.66,55.21 -130.4,163.87 -176.3,220.96 -61.16,76.07 -118.41,144.55 -189.94,210.2l-5.79 -502.67zm-450.33 2104.35c149.55,25.86 290.9,32.18 438.5,64.04 512.69,110.66 272.84,211.45 653.24,-55.35 68.86,-48.3 174.6,-132.97 248.56,-162.72 6.39,-225.9 -68.94,-813.06 -113.41,-1040.49 -124.86,-61.87 -461.64,-51.08 -560.68,-113.45 106.83,-71.22 365.59,-167.98 533.22,-284.16 7.81,-161.87 -19.27,-351.2 -30.35,-516.57 -13.66,-203.93 17.26,-190.17 -80.92,-200.8l-1063.59 -119.71c-98.85,4.6 -74.48,9.41 -67.86,241.65 20.82,730.61 35.3,1455.04 43.29,2187.54z"/>
    <path class="fil1" d="M10017.86 2190.64c-64.27,2.64 -255.1,9.93 -267.74,-34.95 -0.01,-0.03 116.94,-723.78 157.83,-761.25 45.93,20.31 12.58,-9.52 31.74,38.1l78.17 758.1zm-891.8 877.25l522.36 162.91 49.67 -629.39c83.86,-1.97 267.15,-11.23 322.47,29.77 32.29,47.07 77.15,699.79 99.35,830.07l579.76 74.92 -351.35 -2594.84c-171.41,-4.06 -517.77,66.99 -707.68,90.57 -225.46,28 -136.37,-5.39 -257.18,596.62 -36.88,183.76 -256.37,1342.1 -257.39,1439.37z"/>
    <path class="fil1" d="M2727.52 1017.73l4.32 529.11c-103.17,46.77 -598.75,78.8 -757.78,101.56 -37.65,141.45 -22.67,1387.56 -16.59,1620.06 0.71,0.23 1258.75,130.97 1324.77,105.69l-41.37 -458.82c-162.16,-39.76 -546.28,-11.02 -741.45,-27.17l0 -281.91 482.95 13.34 18.58 -448.1c-148.13,4.99 -361.63,66.95 -488.03,51.8l-0.7 -288.6 747.47 -132.75c8.97,-145.21 11.39,-708.08 -24.79,-806.19l-507.38 21.98z"/>
    <path class="fil1" d="M13616.62 1492.18c-12.74,384.76 39.76,1133.74 336.51,1449.92 54.15,57.7 115.93,128.54 227.05,133.22l84.59 -1706.45 -648.16 123.32z"/>
    <path class="fil1" d="M13805.94 386.69c-557.69,70.76 -417.55,861.27 85.21,806.91 213.5,-23.08 376.77,-204.4 362.23,-445.89 -12.34,-204.94 -212.85,-390.78 -447.44,-361.02z"/>
    <path class="fil1" d="M8318.61 871.16c-1.77,341.11 61.45,3553.65 34.11,3760.79l-155.96 -485.27c-44.53,-126.9 -105.82,-401.55 -169.08,-493.21 -65.92,28.69 -271.93,200.1 -325.25,249.52 -49.34,45.75 -96.53,83.93 -156.98,127.59 -60.52,43.73 -109.46,88.84 -171.73,126.44l742.79 1156.45 584.35 -410.38c57.6,-42.03 142.84,-88.01 196.41,-136.36 20.09,-37.51 105.79,-2064.4 113.9,-2233.15 28.02,-583.41 49.58,-1177.12 56.54,-1760.99l-749.11 98.55z"/>
    <polygon class="fil1" points="9394.21,3875.55 13027.26,3727.96 12858.66,3999.44 16010.02,3842.47 15798.86,4127.41 12453.54,4243.37 12657.92,3958.73 9234.93,4169.85 "/>
    <polygon class="fil1" points="542.62,3797.31 3572.37,3859.11 3403.76,4130.6 7044.18,4085.91 7211.39,4360.86 2998.64,4374.51 3203.02,4089.89 393.03,4086.52 "/>
    <g>
     <path class="fil2" d="M7033.15 1859.88c35.39,-53.7 177.02,-179.51 279.31,-178.3 52.54,0.62 135.81,27.58 183.42,42.43 24.07,7.52 66.07,22.48 86.05,22.88 40.94,0.8 38.61,-20.13 76.08,-34.67 -9.18,92.29 -39.85,181.56 -111.64,235.69 -16.08,12.12 -44.01,30.65 -55.23,55.46 -23.98,53.04 -11.33,208.31 -280.45,152.38 69.53,-49.54 142.21,-11.85 210.22,-107.34 -114.44,-13.01 -88.88,-3.06 -126.86,-85.82l-77.41 18.86c14.13,15.77 32.39,30.32 49.9,44.19 -41.65,-6.95 -73.29,-20.28 -119.73,-20.71 -45.07,-0.41 -83.72,9.09 -131.75,7.68 7.89,-8.85 6.42,-7.84 16.17,-16.44l33.59 -22.77c107.12,-58.68 288.02,-127.87 401.57,-86.91 -12.59,-71.97 -113.77,-96.84 -199.59,-88.75 -92.97,8.74 -156.43,42.82 -233.66,62.13zm212.48 1364.64c15.63,-37.31 22.46,-8.31 22.73,-8.06l16.41 49.03c41.54,12.86 3.31,-10.1 34.02,3.79 22.19,10.04 14.99,32.06 63.56,27.02l32.74 -5.67c26.09,2.14 -1.95,10.24 36.01,7.71 1.19,-0.07 3.93,-1.03 5.19,-1.08 52.26,-2.66 20.07,28.3 88.09,-4.25 159.25,-76.2 10.53,-129.13 -27.66,-251.04 1.88,-1.48 4.94,-2.65 6.4,-3.28l46.06 -12.63c-260.27,-154.55 -159.6,-131.52 -342.01,-17.28 32.85,-267.06 86.74,-271.21 354.38,-381.08l-13.64 -7.12c-2.05,-0.85 -4.73,-2.13 -7.05,-2.98l-29.67 -7.32c-102.28,-23.41 -64.71,-54.45 -121.39,-79.97 -16.94,41.06 -74.5,128.35 -116.42,156.3 24.04,-101.39 122.16,-276.37 195.07,-311.51 -83.89,257.43 157.65,142.2 200.27,150.76 38.81,7.81 115.63,57.01 149.6,-9.68 27.55,-54.06 -12.63,-117.58 -33.65,-160.05 -241.67,-487.89 -148.23,-264.49 -87.54,-634.01 20.65,25.35 23.83,48.16 29.71,88.28l80.63 -38.48c-21.81,-77.67 -74.31,-183.13 -105.57,-273.73 -31.42,-91.01 -55.78,-193.04 -115.43,-253.42 -62.18,-62.95 -115.42,-120.91 -190.24,-178.6 -89.36,-68.9 -102.62,-88.92 -237.87,-130.94 -186.19,-57.84 -472.95,-86.05 -607.59,37.29 -124.37,113.93 155.19,408.98 179.12,492.47 -154.69,183.19 -267.45,204.61 -249.59,461.37 13.99,201.15 42.27,431.32 71.86,630.89 14.74,99.36 29.88,207.82 74.99,283.18 52.62,87.97 250,304.02 349.9,352.09 85.64,41.22 182.56,-89.37 228.01,-101.94 3.22,28.79 5.29,57.44 7.88,86.23 1.73,19.13 -0.23,74.07 12.67,47.68z"/>
     <path class="fil3" d="M5479.71 2931.32c0.37,0.35 40.45,62.53 138.04,145.38 138.88,117.91 404.75,382.81 526.32,479.06 186.76,147.9 361.4,310.28 594.34,399.7 -44.41,-143.27 -294.83,-353.77 -417.65,-474.85l-138.2 -156.93c-39.5,-50.25 -136.1,-167.6 -164.6,-227.55 36.33,15.16 111.2,94.02 149.13,123.14 88.52,67.95 387.26,290.75 478.57,322.14 -35.79,-55.02 -96.59,-120.92 -138.9,-173.14 -144.98,-178.94 -256.1,-338.7 -378.75,-543.78 -291.08,-50.6 -245.22,-201.22 -355.54,-292.62 -40.61,18.83 -55.99,49.37 -91.92,86.15 -130.7,133.82 -113.84,91.66 -200.81,313.28z"/>
     <path class="fil4" d="M6507.86 478.62l-1.72 -12.17c-85.33,32.18 -170.71,61.13 -254.21,94.69 -82.27,33.09 -168.21,84.78 -237.56,109.84 15.64,-35.72 42.18,-64.03 59.5,-99.43 -103.71,23.03 -357.76,222.53 -420.03,340.41 -11.58,12.32 12.81,11.29 -14.45,10.48l-4.94 -22.7 -5.88 -94.56c-29.81,6.39 -74.54,108.6 -91.88,147.35 -30.4,68.02 -36.66,119.53 -52.1,196.35 -34.38,-13.83 -42.39,-28.62 -69.22,-41.36l11.52 87.14 -112.84 -2.67c28.9,19.07 86.5,56.55 96.75,90.09l-103.3 20.25c17.03,37.42 -0.47,2.43 12.95,22.18l73.12 79.72 -112.64 72.88 62.93 41.24c-25.54,19.01 -42.34,23.21 -58.33,48.81 127.56,162.56 57.11,52.16 74.09,171.1l76.43 349.26c26.44,143.47 -26.54,175.36 -6.04,300.16 11.11,67.65 33.4,223.86 53.8,282.21 16.35,-84.22 -3.49,-221.35 -6.55,-310.19 -4.4,-128.04 49.98,-114.6 17.61,-285.86 -16.8,-88.93 -39.59,-177.7 -54.45,-267.52 -7.09,-42.93 -5.39,-114.3 -12.03,-145.48 -5.53,-25.93 -44.88,-67.15 -58.32,-91.46 22.9,-15.47 48.93,-32.63 68.73,-48.31 -18.86,-26.44 -32.2,-24.35 -53.45,-45.98l86.47 -46.98c-21.82,-54.53 -57.36,-53.59 -67.87,-97.25l93.09 -5.21 -31.79 -96.25 69.78 6.7c1.81,-78.76 15.98,-193.13 52.95,-253.22l13.27 25.44c2.34,5.81 4.68,14.61 6.83,21.2 5.54,17.06 11.85,33.64 16.96,48.89 32.94,-37.25 84.48,-220.54 302.8,-362.75l-23.64 81.48 311.86 -160.69c31.98,-15.6 76.43,-30.02 105.09,-46.65 23.42,24.09 -3.4,10.6 4.58,34.85 80.88,-19.49 175.64,-42.53 253.5,-68.03 130.28,-42.66 132.33,-70.07 211.03,-109.28l-18.67 130.76c55.55,-30.26 93.5,-118.29 125.9,-142.71 38.1,27.74 59.26,56.49 72.73,118.76l20.32 -1.19 0.73 -166.67c42.15,38.74 60.76,109.96 101.47,157.86l-5.76 -80.77c53.44,14.55 116.43,110.33 152.96,153.01 1.08,1.26 12.24,13.24 12.9,13.74 15.85,11.84 28.08,3.57 32.02,6.69 78.38,72.71 82.54,219.7 125.47,299.9 10.81,-143.01 -35.99,-250.74 -100.46,-363.53l-57.63 -81.96 -2.78 64.14c-10.03,-8.19 -6.17,-4.94 -16.09,-15.37 -1.91,-2.02 -7.45,-8.18 -9.27,-10.31 -67.02,-78.24 -202.58,-222.64 -292.63,-267.22l13.67 125.68c-22.67,-15.09 -19.44,-15.98 -39.22,-38.64 -12.4,-14.19 -18.12,-21.8 -30.71,-34.36l-22.7 85.29 -33.78 -58.52c-0.6,-3.49 -2.58,-4.19 -4.21,-6.01 -77.73,41.57 -5.73,63.06 -336.55,183.12 5.33,-18.63 15.14,-24.43 29.88,-40.44z"/>
     <path class="fil5" d="M5942.21 2473.11c-29.69,-13.27 -9,1.18 -31.11,-21.91 -98.81,-103.09 -179.23,-444.18 22.22,-483.76 102.28,-20.08 195.1,80.08 208.48,162.37 11.95,73.48 -25.58,108.23 -24.27,156.04 1.41,51.38 76.24,89.88 30.22,135.17 -36.56,35.9 -78.19,-7.83 -106.5,-25.92 -34.87,-22.27 -90.35,-26.71 -108.52,-57.7 -51.19,-87.24 76.37,-206.99 76.44,-217.64 0.22,-31.83 -124.78,-155.47 -135.94,73.42 -7.13,146.05 33.38,172.72 68.99,279.93zm371.2 454.56c36.43,-153.62 68.41,-522.02 37.93,-676.77 -22.07,-111.99 -69.74,-187.01 -133.03,-235.71 -16.26,-12.52 -34.81,-29.05 -53.69,-38.52l-207.65 -72.09c-110.75,-7.88 -185.58,77.23 -194.09,178.26 -38.1,452.46 350.67,730.65 450.24,487.55 27.98,36.01 12.69,28.53 12.73,28.64l9.4 72.25c11.71,68.21 50.28,198.91 78.16,256.4z"/>
     <path class="fil4" d="M7511.35 3699.17c0.64,-1.56 2.25,4.62 4.03,6.37 101.08,-70.17 144.98,-93.66 212.92,-192.49 34.66,-50.42 56.41,-82.43 41.86,-154.24l-54.4 -153.77c-6.35,75.35 21.08,192.43 3.67,225.97 -21.87,42.15 -7.56,7.57 -15.86,11.85 -55.84,28.9 -31.46,106.56 -159.92,167.68 0.65,-14.57 6.64,-37.95 -2.24,-51.98 -32.74,32.87 -109.47,77.28 -170.83,81.26l24.52 -43.43c-59.04,14.09 -133.37,53.5 -199.02,50.59 9.38,-16.92 20.13,-26.84 33.03,-49.12 -155.84,30.35 -197.73,24.1 -284.75,246.51 27.19,-17.25 36.32,-35.31 60.28,-58.96 0,0 21.89,-25.94 58.18,-49.55l0.7 -0.65 0.18 0.09c23.53,-15.16 53,-29.27 86.42,-34.75l-0.68 -0.91 13.82 -0.78c5.19,-0.48 10.46,-0.73 15.81,-0.75l0.07 0c172.02,-7.04 183.77,23.93 308.59,-28.93 21.34,8.91 20.34,37.68 23.63,29.97z"/>
     <path class="fil5" d="M7454.56 2899.13c22.49,37.18 73.58,70.22 117.1,95.69 51.8,30.31 101.66,39.61 175.01,34.27l-1.92 -96.71c-119.46,-33.16 -151.95,-42.87 -290.19,-33.24z"/>
     <path class="fil6" d="M7433.34 2845.43c57.58,-5.74 102.29,-33.63 152.93,-55.14 114.39,-48.57 70.92,-23.53 150.46,13.78 38.24,-6.18 35.2,-4.82 54.3,-29.53 -27.78,-22.31 -33.52,-4.42 -51.75,-6.82 -52.36,-6.9 -20.49,-59.5 -140.17,-11.38 -41.97,16.86 -141.97,55.58 -165.76,89.08z"/>
     <path class="fil7" d="M7856.62 1898.85c-36.55,-4.81 -38.32,-2.39 -69.88,12.4 -35.13,16.48 -28.32,10.13 -42.33,29.6l126.78 24.79 -14.57 -66.79z"/>
     <path class="fil7" d="M7790.72 2175.61c11.02,-6.51 10.99,-4.04 20.05,-11.11l2.26 -53.94c-15,-11.25 -42.28,-23.71 -52.42,-33.03 -29.42,-27.02 -2.96,-22.09 -35.51,-51.79 -6.04,72.18 42.7,84.63 65.62,149.87z"/>
     <polygon class="fil8" points="6970.14,570.02 6991.74,572.28 6990.56,552.96 6970.25,554.15 "/>
     <path class="fil9" d="M7790.72 2175.61c11.07,12.86 -13.73,15.4 12.98,10.75l7.08 -21.86c-9.07,7.07 -9.03,4.6 -20.05,11.11z"/>
     <path class="fil10" d="M5653.84 911.96c-10.88,-6.7 -7.18,0.1 -19.39,-12.22l4.94 22.7c27.27,0.81 2.88,1.85 14.45,-10.48z"/>
     <path class="fil11" d="M7245.63 3224.52l22.73 -8.06c-0.27,-0.25 -7.1,-29.26 -22.73,8.06z"/>
     <polygon class="fil12" points="6991.74,572.28 6970.14,570.02 6977.34,590.38 "/>
     <polygon class="fil11" points="6507.86,478.62 6527.34,462.1 6506.15,466.45 "/>
    </g>
   </g>
  </g>
 </g>
</svg>
